<svg width="118" height="40" viewBox="0 0 118 40" fill="none" xmlns="http://www.w3.org/2000/svg">
<g clip-path="url(#clip0_1406_2)">
<path d="M16.3287 39.9714C7.37007 39.9714 0.083252 32.902 0.083252 24.2121C0.083252 15.5223 7.37115 8.45291 16.3287 8.45291H16.3326C17.8415 5.92467 19.9817 3.83219 22.5432 2.38077C25.1047 0.929354 27.9994 0.168862 30.9435 0.173914C39.0901 0.173914 46.1512 6.06269 47.6727 13.9917C51.573 16.6485 53.8803 20.9877 53.8803 25.7453C53.8803 33.5898 47.4991 39.9714 39.6555 39.9714C39.6555 39.9714 28.7886 41.0679 28.9743 29.5605H27.3283C27.3283 29.5605 28.4866 40.0852 16.5401 39.9996L16.3287 39.9714Z" fill="#353431"/>
<path d="M31.1893 27.2941C30.9163 27.774 30.2926 28.7012 30.2618 28.7324C30.1873 28.8069 30.0989 28.866 30.0015 28.9062C29.9041 28.9464 29.7997 28.967 29.6943 28.9668L26.6145 28.9693C26.486 28.9682 26.3596 28.9366 26.2456 28.8772C26.1317 28.8178 26.0334 28.7322 25.959 28.6275C25.6756 28.2242 25.3947 27.774 25.1195 27.2952C24.2117 27.5271 21.5652 27.764 21.5652 27.764C21.5652 27.764 21.8321 23.7304 23.1618 22.2266C22.8587 20.7529 22.7857 19.2327 23.0902 17.789C23.6692 15.0549 25.5489 12.9993 27.5885 10.9583C27.7391 10.808 27.9431 10.7236 28.1558 10.7236C28.3686 10.7236 28.5726 10.808 28.7232 10.9583C30.6805 12.9155 32.6418 15.0588 33.2175 17.7937C33.5242 19.2341 33.4522 20.7544 33.1484 22.2313C34.4789 23.7343 34.7461 27.7672 34.7461 27.7672C34.7461 27.7672 32.0971 27.5271 31.1893 27.2941Z" fill="#F3F2F2"/>
<path d="M29.5833 18.741C29.5833 18.4649 29.5015 18.1951 29.3481 17.9656C29.1948 17.736 28.9768 17.5572 28.7218 17.4515C28.4668 17.3459 28.1862 17.3182 27.9155 17.3721C27.6448 17.4259 27.3961 17.5589 27.201 17.7541C27.0058 17.9493 26.8729 18.1979 26.8191 18.4687C26.7652 18.7394 26.7928 19.0201 26.8985 19.2751C27.0041 19.5301 27.183 19.7481 27.4125 19.9015C27.6419 20.0548 27.9118 20.1367 28.1878 20.1367C28.5579 20.1367 28.9129 19.9896 29.1746 19.7279C29.4363 19.4661 29.5833 19.1111 29.5833 18.741V18.741Z" fill="#353431"/>
<path d="M73.2199 29.6443C73.1722 29.7159 73.102 29.8126 73.0092 29.9345C72.9164 30.0564 72.6966 30.2733 72.3497 30.5851C72.0044 30.8954 71.6305 31.1722 71.2329 31.4118C70.8343 31.6521 70.3095 31.866 69.6585 32.0535C69.0041 32.2419 68.3263 32.3367 67.6453 32.3351C65.6288 32.3351 63.9554 31.6345 62.625 30.2333C61.2946 28.8322 60.6294 27.0121 60.6294 24.7733V14.6967H63.1439V24.7733C63.1439 26.2857 63.6127 27.5342 64.5505 28.5188C65.4882 29.5034 66.6371 29.9958 67.9971 29.9961C69.4625 29.9961 70.6992 29.4568 71.707 28.3781C72.7149 27.2995 73.219 25.9219 73.2192 24.2454V14.6967H75.7523V31.9819H73.2203L73.2199 29.6443Z" fill="#353431"/>
<path d="M84.2095 39.5448H81.6951V14.6967H84.2095V17.4047C84.2572 17.3346 84.3423 17.2262 84.4647 17.0794C84.587 16.9327 84.8391 16.6836 85.2208 16.3322C85.6028 15.9796 86.0179 15.6645 86.4603 15.3914C86.9056 15.1158 87.4771 14.8696 88.1746 14.6527C88.8721 14.4359 89.5984 14.3262 90.3287 14.3274C92.5325 14.3274 94.4637 15.2125 96.1223 16.9828C97.781 18.7531 98.6104 20.8722 98.6107 23.34C98.6107 25.8079 97.7842 27.924 96.1313 29.6883C94.4784 31.4526 92.5442 32.3354 90.3287 32.3366C89.6047 32.3387 88.8844 32.2319 88.1921 32.0198C87.5065 31.8087 86.9293 31.5566 86.4603 31.2637C86.0309 30.9994 85.6223 30.7025 85.2383 30.3758C84.8926 30.0766 84.6318 29.8216 84.4557 29.6107L84.2095 29.2764V39.5448ZM86.0999 27.9999C87.3602 29.3304 88.7698 29.9957 90.3287 29.9957C91.8173 29.9957 93.1507 29.348 94.3289 28.0525C95.5071 26.757 96.0962 25.1861 96.0962 23.3397C96.0962 21.4931 95.5071 19.922 94.3289 18.6265C93.1507 17.331 91.8173 16.6835 90.3287 16.684C88.7696 16.684 87.36 17.3493 86.0999 18.6798C84.8399 20.0104 84.2098 21.5638 84.2095 23.34C84.2095 25.1163 84.8397 26.6697 86.0999 28.0002V27.9999Z" fill="#353431"/>
<path d="M110.673 17.0347H106.522V31.9833H104.008V17.0347H101.301V14.6967H104.009V11.4608C104.009 9.85469 104.422 8.61192 105.249 7.73251C106.075 6.85311 107.221 6.41352 108.686 6.41376C109.118 6.41353 109.549 6.4607 109.97 6.5544C110.392 6.64816 110.708 6.74193 110.919 6.83569L111.201 6.9588V9.29784C110.485 8.93425 109.706 8.75257 108.862 8.75281C107.303 8.75281 106.524 9.65548 106.524 11.4608V14.6967H110.675L110.673 17.0347Z" fill="#DD6B20"/>
<path d="M114.726 7.77651C115.036 7.46636 115.42 7.31128 115.878 7.31128C116.335 7.31128 116.719 7.46636 117.029 7.77651C117.339 8.08667 117.494 8.47066 117.494 8.9285C117.494 9.38634 117.339 9.77033 117.029 10.0805C116.719 10.3906 116.335 10.5457 115.878 10.5457C115.42 10.5457 115.036 10.3906 114.726 10.0805C114.416 9.77033 114.26 9.38634 114.26 8.9285C114.26 8.47066 114.416 8.08667 114.726 7.77651ZM114.629 14.6967H117.144V31.9819H114.629V14.6967Z" fill="#DD6B20"/>
</g>
<defs>
<clipPath id="clip0_1406_2">
<rect width="117.692" height="40" fill="white"/>
</clipPath>
</defs>
</svg>
